<?xml version="1.0" encoding="utf-8"?>
<!-- Generator: Adobe Illustrator 17.0.0, SVG Export Plug-In . SVG Version: 6.00 Build 0)  -->
<!DOCTYPE svg PUBLIC "-//W3C//DTD SVG 1.1//EN" "http://www.w3.org/Graphics/SVG/1.1/DTD/svg11.dtd">
<svg version="1.1" id="Layer_1" xmlns="http://www.w3.org/2000/svg" xmlns:xlink="http://www.w3.org/1999/xlink" x="0px" y="0px"
	 width="100px" height="100px" viewBox="0 0 100 100" enable-background="new 0 0 100 100" xml:space="preserve">
<path fill="#c2e665" d="M78.646,11.004H21.448c-11.143,0-20.211,9.068-20.211,20.211v37.568c0,11.146,9.068,20.213,20.211,20.213
	h57.198c11.143,0,20.211-9.068,20.211-20.213V31.215C98.857,20.071,89.789,11.004,78.646,11.004z M21.448,18.035h57.198
	c7.266,0,13.18,5.912,13.18,13.18v0.346L49.967,48.968L8.268,33.694v-2.479C8.268,23.946,14.179,18.035,21.448,18.035z
	 M78.646,81.965H21.448c-7.269,0-13.18-5.914-13.18-13.183V41.18l41.859,15.336l41.699-17.341v29.608
	C91.826,76.052,85.912,81.965,78.646,81.965z"/>
</svg>
