<?xml version="1.0" encoding="utf-8"?>
<!-- Generator: Adobe Illustrator 17.0.0, SVG Export Plug-In . SVG Version: 6.00 Build 0)  -->
<!DOCTYPE svg PUBLIC "-//W3C//DTD SVG 1.1//EN" "http://www.w3.org/Graphics/SVG/1.1/DTD/svg11.dtd">
<svg version="1.1" id="Layer_1" xmlns="http://www.w3.org/2000/svg" xmlns:xlink="http://www.w3.org/1999/xlink" x="0px" y="0px"
	 width="100px" height="100px" viewBox="0 0 100 100" enable-background="new 0 0 100 100" xml:space="preserve">
<path fill-rule="evenodd" clip-rule="evenodd" fill="#c2e665" d="M50.038,1C22.802,1,0.715,23.084,0.715,50.329
	c0,21.791,14.132,40.279,33.734,46.802c2.466,0.452,3.367-1.07,3.367-2.378c0-1.171-0.043-4.273-0.067-8.389
	c-13.721,2.981-16.616-6.612-16.616-6.612c-2.243-5.698-5.477-7.215-5.477-7.215c-4.479-3.06,0.339-2.998,0.339-2.998
	c4.95,0.349,7.555,5.083,7.555,5.083c4.4,7.538,11.544,5.361,14.355,4.098c0.448-3.188,1.722-5.361,3.132-6.594
	C30.085,70.881,18.57,66.649,18.57,47.747c0-5.385,1.922-9.788,5.077-13.236c-0.507-1.248-2.2-6.263,0.484-13.054
	c0,0,4.141-1.326,13.564,5.057c3.934-1.094,8.154-1.641,12.349-1.66c4.189,0.019,8.409,0.566,12.349,1.66
	c9.417-6.383,13.551-5.057,13.551-5.057c2.691,6.791,0.998,11.806,0.491,13.054c3.161,3.448,5.07,7.851,5.07,13.236
	c0,18.949-11.533,23.119-22.521,24.34c1.771,1.523,3.349,4.533,3.349,9.134c0,6.594-0.061,11.914-0.061,13.532
	c0,1.319,0.888,2.854,3.392,2.372c19.583-6.535,33.704-25.011,33.704-46.796C99.367,23.084,77.28,1,50.038,1z"/>
</svg>